#  ==========================================================================
#  
#  Wavefront OBJ format exported by Red-i Productions' "Riptide Pro"
#     (a commercial plugin for Cinema 4D PC & Mac, R9.6 or later)
#  
#  Red-i Productions
#  http://skinprops.com
#  
#  ==========================================================================
mtllib jeton-jeff.mtl
v 0 -0.52 -0
v 0 0.52 -0
v 1.52 -0.52 -0
v 1.59509 -0.51409 -0
v 1.66833 -0.496507 -0
v 1.73792 -0.467683 -0
v 1.80214 -0.428328 -0
v 1.85941 -0.379411 -0
v 1.90833 -0.322137 -0
v 1.94768 -0.257915 -0
v 1.97651 -0.188328 -0
v 1.99409 -0.115089 -0
v 2 -0.04 -0
v 2 0.04 -0
v 1.99409 0.115089 -0
v 1.97651 0.188328 -0
v 1.94768 0.257915 -0
v 1.90833 0.322137 -0
v 1.85941 0.379411 -0
v 1.80214 0.428328 -0
v 1.73792 0.467683 -0
v 1.66833 0.496507 -0
v 1.59509 0.51409 -0
v 1.52 0.52 -0
v 0.76 -0.52 -1.31636
v 0.797544 -0.51409 -1.38139
v 0.834164 -0.496507 -1.44481
v 0.868958 -0.467683 -1.50508
v 0.901068 -0.428328 -1.5607
v 0.929706 -0.379411 -1.6103
v 0.954164 -0.322137 -1.65266
v 0.973842 -0.257915 -1.68674
v 0.988254 -0.188328 -1.71171
v 0.997045 -0.115089 -1.72693
v 1 -0.04 -1.73205
v 1 0.04 -1.73205
v 0.997045 0.115089 -1.72693
v 0.988254 0.188328 -1.71171
v 0.973842 0.257915 -1.68674
v 0.954164 0.322137 -1.65266
v 0.929706 0.379411 -1.6103
v 0.901068 0.428328 -1.5607
v 0.868958 0.467683 -1.50508
v 0.834164 0.496507 -1.44481
v 0.797544 0.51409 -1.38139
v 0.76 0.52 -1.31636
v -0.76 -0.52 -1.31636
v -0.797544 -0.51409 -1.38139
v -0.834164 -0.496507 -1.44481
v -0.868958 -0.467683 -1.50508
v -0.901068 -0.428328 -1.5607
v -0.929706 -0.379411 -1.6103
v -0.954164 -0.322137 -1.65266
v -0.973842 -0.257915 -1.68674
v -0.988254 -0.188328 -1.71171
v -0.997045 -0.115089 -1.72693
v -1 -0.04 -1.73205
v -1 0.04 -1.73205
v -0.997045 0.115089 -1.72693
v -0.988254 0.188328 -1.71171
v -0.973842 0.257915 -1.68674
v -0.954164 0.322137 -1.65266
v -0.929706 0.379411 -1.6103
v -0.901068 0.428328 -1.5607
v -0.868958 0.467683 -1.50508
v -0.834164 0.496507 -1.44481
v -0.797544 0.51409 -1.38139
v -0.76 0.52 -1.31636
v -1.52 -0.52 -1.86146e-16
v -1.59509 -0.51409 -1.95342e-16
v -1.66833 -0.496507 -2.04311e-16
v -1.73792 -0.467683 -2.12833e-16
v -1.80214 -0.428328 -2.20698e-16
v -1.85941 -0.379411 -2.27712e-16
v -1.90833 -0.322137 -2.33703e-16
v -1.94768 -0.257915 -2.38522e-16
v -1.97651 -0.188328 -2.42052e-16
v -1.99409 -0.115089 -2.44206e-16
v -2 -0.04 -2.44929e-16
v -2 0.04 -2.44929e-16
v -1.99409 0.115089 -2.44206e-16
v -1.97651 0.188328 -2.42052e-16
v -1.94768 0.257915 -2.38522e-16
v -1.90833 0.322137 -2.33703e-16
v -1.85941 0.379411 -2.27712e-16
v -1.80214 0.428328 -2.20698e-16
v -1.73792 0.467683 -2.12833e-16
v -1.66833 0.496507 -2.04311e-16
v -1.59509 0.51409 -1.95342e-16
v -1.52 0.52 -1.86146e-16
v -0.76 -0.52 1.31636
v -0.797544 -0.51409 1.38139
v -0.834164 -0.496507 1.44481
v -0.868958 -0.467683 1.50508
v -0.901068 -0.428328 1.5607
v -0.929706 -0.379411 1.6103
v -0.954164 -0.322137 1.65266
v -0.973842 -0.257915 1.68674
v -0.988254 -0.188328 1.71171
v -0.997045 -0.115089 1.72693
v -1 -0.04 1.73205
v -1 0.04 1.73205
v -0.997045 0.115089 1.72693
v -0.988254 0.188328 1.71171
v -0.973842 0.257915 1.68674
v -0.954164 0.322137 1.65266
v -0.929706 0.379411 1.6103
v -0.901068 0.428328 1.5607
v -0.868958 0.467683 1.50508
v -0.834164 0.496507 1.44481
v -0.797544 0.51409 1.38139
v -0.76 0.52 1.31636
v 0.76 -0.52 1.31636
v 0.797544 -0.51409 1.38139
v 0.834164 -0.496507 1.44481
v 0.868958 -0.467683 1.50508
v 0.901068 -0.428328 1.5607
v 0.929706 -0.379411 1.6103
v 0.954164 -0.322137 1.65266
v 0.973842 -0.257915 1.68674
v 0.988254 -0.188328 1.71171
v 0.997045 -0.115089 1.72693
v 1 -0.04 1.73205
v 1 0.04 1.73205
v 0.997045 0.115089 1.72693
v 0.988254 0.188328 1.71171
v 0.973842 0.257915 1.68674
v 0.954164 0.322137 1.65266
v 0.929706 0.379411 1.6103
v 0.901068 0.428328 1.5607
v 0.868958 0.467683 1.50508
v 0.834164 0.496507 1.44481
v 0.797544 0.51409 1.38139
v 0.76 0.52 1.31636
# 134 vertices

vt 0.63115 0.25190
vt 0.89956 0.25190
vt 0.76536 0.48435
vt 0.19610 0.36268
vt 0.18984 0.36263
vt 0.18308 0.50757
vt 0.18915 0.50770
vt 0.18384 0.36243
vt 0.17723 0.50738
vt 0.17799 0.36239
vt 0.17154 0.50725
vt 0.17225 0.36234
vt 0.16596 0.50707
vt 0.16659 0.36221
vt 0.16044 0.50689
vt 0.16096 0.36212
vt 0.15495 0.50673
vt 0.15535 0.36203
vt 0.14948 0.50656
vt 0.14974 0.36194
vt 0.14402 0.50638
vt 0.14413 0.36185
vt 0.13855 0.50621
vt 0.13853 0.36176
vt 0.13309 0.50602
vt 0.13258 0.36166
vt 0.12729 0.50583
vt 0.12698 0.36158
vt 0.12182 0.50565
vt 0.12137 0.36150
vt 0.11636 0.50547
vt 0.11577 0.36142
vt 0.11089 0.50530
vt 0.11016 0.36134
vt 0.10542 0.50513
vt 0.10454 0.36126
vt 0.09993 0.50493
vt 0.09888 0.36119
vt 0.09442 0.50475
vt 0.09316 0.36112
vt 0.08883 0.50457
vt 0.08734 0.36110
vt 0.08315 0.50438
vt 0.08137 0.36097
vt 0.07730 0.50419
vt 0.07518 0.36091
vt 0.07124 0.50390
vt 0.87912 0.74470
vt 0.61071 0.74470
vt 0.74491 0.97715
vt 0.49695 0.48435
vt 0.17868 0.65053
vt 0.18487 0.65059
vt 0.17272 0.65047
vt 0.16692 0.65041
vt 0.16122 0.65034
vt 0.15558 0.65030
vt 0.14997 0.65025
vt 0.14438 0.65019
vt 0.13879 0.65013
vt 0.13320 0.65005
vt 0.12761 0.64998
vt 0.12168 0.64989
vt 0.11608 0.64980
vt 0.11049 0.64972
vt 0.10489 0.64964
vt 0.09929 0.64957
vt 0.09367 0.64948
vt 0.08802 0.64936
vt 0.08230 0.64927
vt 0.07647 0.64911
vt 0.07047 0.64899
vt 0.06425 0.64877
vt 0.47650 0.97715
vt 0.36274 0.25190
vt 0.18268 0.79804
vt 0.18926 0.79765
vt 0.17632 0.79840
vt 0.17010 0.79872
vt 0.16398 0.79902
vt 0.15793 0.79934
vt 0.15189 0.79963
vt 0.14586 0.79990
vt 0.13982 0.80016
vt 0.13377 0.80041
vt 0.12771 0.80067
vt 0.12125 0.80091
vt 0.11518 0.80111
vt 0.10911 0.80131
vt 0.10304 0.80152
vt 0.09698 0.80173
vt 0.09090 0.80195
vt 0.08480 0.80213
vt 0.07863 0.80229
vt 0.07234 0.80243
vt 0.06587 0.80253
vt 0.05912 0.80261
vt 0.34230 0.74470
vt 0.49695 0.01945
vt 0.20349 0.95903
vt 0.20971 0.95429
vt 0.19721 0.96368
vt 0.19080 0.96812
vt 0.18422 0.97230
vt 0.17745 0.97610
vt 0.17048 0.97948
vt 0.16333 0.98237
vt 0.15600 0.98472
vt 0.14852 0.98651
vt 0.14093 0.98771
vt 0.13286 0.98861
vt 0.12517 0.98917
vt 0.11746 0.98914
vt 0.10975 0.98854
vt 0.10209 0.98741
vt 0.09449 0.98579
vt 0.08696 0.98374
vt 0.07951 0.98135
vt 0.07211 0.97868
vt 0.06473 0.97582
vt 0.05731 0.97287
vt 0.47650 0.51225
vt 0.76536 0.01945
vt 0.20319 0.03770
vt 0.19573 0.03475
vt 0.19500 0.20873
vt 0.20176 0.20856
vt 0.18833 0.03185
vt 0.18852 0.20876
vt 0.18090 0.02918
vt 0.18221 0.20896
vt 0.17343 0.02676
vt 0.17602 0.20912
vt 0.16588 0.02473
vt 0.16990 0.20930
vt 0.15827 0.02310
vt 0.16382 0.20945
vt 0.15058 0.02198
vt 0.15773 0.20965
vt 0.14286 0.02138
vt 0.15165 0.20985
vt 0.13513 0.02137
vt 0.14556 0.21005
vt 0.12742 0.02194
vt 0.13946 0.21025
vt 0.11932 0.02287
vt 0.13298 0.21049
vt 0.11172 0.02409
vt 0.12691 0.21074
vt 0.10422 0.02590
vt 0.12083 0.21099
vt 0.09686 0.02828
vt 0.11476 0.21123
vt 0.08969 0.03119
vt 0.10871 0.21149
vt 0.08272 0.03459
vt 0.10265 0.21178
vt 0.07594 0.03842
vt 0.09658 0.21205
vt 0.06935 0.04261
vt 0.09045 0.21239
vt 0.06293 0.04709
vt 0.08424 0.21277
vt 0.05664 0.05176
vt 0.07786 0.21312
vt 0.05041 0.05653
vt 0.07126 0.21351
vt 0.74491 0.51225
# 168 texture coordinates

vn 0 -1 -0
vn 0.0392394 -0.99923 -9.32519e-10
vn 0.0196197 -0.99923 -0.0339823
vn 0.156124 -0.987737 -9.3889e-10
vn 0.0780621 -0.987737 -0.135208
vn 0.308462 -0.951237 1.51942e-08
vn 0.154231 -0.951237 -0.267136
vn 0.453299 -0.891358 1.54586e-08
vn 0.22665 -0.891358 -0.392569
vn 0.587077 -0.809531 -7.89302e-09
vn 0.293539 -0.809531 -0.508424
vn 0.706485 -0.707728 -8.07092e-09
vn 0.353242 -0.707728 -0.611834
vn 0.808546 -0.588433 -2.47358e-08
vn 0.404273 -0.588433 -0.700221
vn 0.890708 -0.454576 -2.51989e-08
vn 0.445354 -0.454576 -0.771376
vn 0.950913 -0.309459 8.52028e-09
vn 0.475456 -0.309459 -0.823515
vn 0.987651 -0.156671 -0
vn 0.493825 -0.156671 -0.855331
vn 0.999228 -0.0392746 -8.60651e-09
vn 0.499614 -0.0392745 -0.865357
vn 0.999228 0.0392745 8.60651e-09
vn 0.499614 0.0392744 -0.865357
vn 0.987651 0.156671 8.5969e-09
vn 0.493825 0.156671 -0.855331
vn 0.950913 0.309459 -0
vn 0.475456 0.309459 -0.823515
vn 0.890708 0.454576 -1.67993e-08
vn 0.445354 0.454576 -0.771376
vn 0.808546 0.588433 -8.24525e-09
vn 0.404273 0.588433 -0.700221
vn 0.706485 0.707728 -0
vn 0.353242 0.707728 -0.611834
vn 0.587077 0.809531 -1.5786e-08
vn 0.293539 0.809531 -0.508424
vn 0.453299 0.891358 -1.54586e-08
vn 0.22665 0.891358 -0.392569
vn 0.308462 0.951237 -1.13957e-08
vn 0.154231 0.951237 -0.267136
vn 0.156124 0.987737 7.51112e-08
vn 0.0780621 0.987737 -0.135208
vn 0.0392396 0.99923 7.92641e-08
vn 0.0196197 0.99923 -0.0339823
vn 0 1 -0
vn -0.0196197 -0.99923 -0.0339823
vn -0.0780621 -0.987737 -0.135208
vn -0.154231 -0.951237 -0.267136
vn -0.22665 -0.891358 -0.392569
vn -0.293539 -0.809531 -0.508424
vn -0.353242 -0.707728 -0.611834
vn -0.404273 -0.588433 -0.700221
vn -0.445354 -0.454576 -0.771376
vn -0.475456 -0.309459 -0.823515
vn -0.493825 -0.156671 -0.855331
vn -0.499614 -0.0392744 -0.865357
vn -0.499614 0.0392744 -0.865357
vn -0.493825 0.156671 -0.855331
vn -0.475456 0.309459 -0.823515
vn -0.445354 0.454576 -0.771376
vn -0.404273 0.588433 -0.700221
vn -0.353242 0.707728 -0.611834
vn -0.293539 0.809531 -0.508424
vn -0.22665 0.891358 -0.392569
vn -0.154231 0.951237 -0.267136
vn -0.0780621 0.987737 -0.135208
vn -0.0196197 0.99923 -0.0339823
vn -0.0392394 -0.99923 9.32519e-10
vn -0.156124 -0.987737 -0
vn -0.308462 -0.951237 -1.89928e-08
vn -0.453299 -0.891358 -7.72931e-09
vn -0.587077 -0.809531 7.89302e-09
vn -0.706485 -0.707728 1.61418e-08
vn -0.808546 -0.588433 3.2981e-08
vn -0.890708 -0.454576 1.67993e-08
vn -0.950913 -0.309459 -0
vn -0.987651 -0.156671 8.5969e-09
vn -0.999228 -0.0392746 -0
vn -0.999228 0.0392745 -0
vn -0.987651 0.156671 -8.5969e-09
vn -0.950913 0.309459 -8.52028e-09
vn -0.890708 0.454576 1.67993e-08
vn -0.808546 0.588433 1.64905e-08
vn -0.706485 0.707728 8.07092e-09
vn -0.587077 0.809531 2.36791e-08
vn -0.453299 0.891358 7.72931e-09
vn -0.308462 0.951237 1.51942e-08
vn -0.156124 0.987737 -9.3889e-10
vn -0.0392394 0.99923 -2.79756e-09
vn -0.0196197 -0.99923 0.0339823
vn -0.0780621 -0.987737 0.135208
vn -0.154231 -0.951237 0.267136
vn -0.22665 -0.891358 0.392569
vn -0.293539 -0.809531 0.508424
vn -0.353242 -0.707728 0.611834
vn -0.404273 -0.588433 0.700221
vn -0.445354 -0.454576 0.771376
vn -0.475456 -0.309459 0.823515
vn -0.493825 -0.156671 0.855331
vn -0.499614 -0.0392745 0.865357
vn -0.499614 0.0392744 0.865357
vn -0.493825 0.156671 0.855331
vn -0.475456 0.309459 0.823515
vn -0.445354 0.454576 0.771376
vn -0.404273 0.588433 0.700221
vn -0.353242 0.707728 0.611834
vn -0.293539 0.809531 0.508424
vn -0.22665 0.891358 0.392569
vn -0.154231 0.951237 0.267136
vn -0.0780621 0.987737 0.135208
vn -0.0196197 0.99923 0.0339823
vn 0.0196197 -0.99923 0.0339823
vn 0.0780621 -0.987737 0.135208
vn 0.154231 -0.951237 0.267136
vn 0.22665 -0.891358 0.392569
vn 0.293539 -0.809531 0.508424
vn 0.353242 -0.707728 0.611834
vn 0.404273 -0.588433 0.700221
vn 0.445354 -0.454576 0.771376
vn 0.475456 -0.309459 0.823515
vn 0.493825 -0.156671 0.855331
vn 0.499614 -0.0392744 0.865357
vn 0.499614 0.0392744 0.865357
vn 0.493825 0.156671 0.855331
vn 0.475456 0.309459 0.823515
vn 0.445354 0.454576 0.771376
vn 0.404273 0.588433 0.700221
vn 0.353242 0.707728 0.611834
vn 0.293539 0.809531 0.508424
vn 0.22665 0.891358 0.392569
vn 0.154231 0.951237 0.267136
vn 0.0780622 0.987737 0.135208
vn 0.0196198 0.99923 0.0339824
# 134 vertex normals

f 25/3/3 3/2/2 1/1/1
f 25/7/3 26/6/5 4/5/4 3/4/2
f 26/6/5 27/9/7 5/8/6 4/5/4
f 27/9/7 28/11/9 6/10/8 5/8/6
f 28/11/9 29/13/11 7/12/10 6/10/8
f 29/13/11 30/15/13 8/14/12 7/12/10
f 30/15/13 31/17/15 9/16/14 8/14/12
f 31/17/15 32/19/17 10/18/16 9/16/14
f 32/19/17 33/21/19 11/20/18 10/18/16
f 33/21/19 34/23/21 12/22/20 11/20/18
f 34/23/21 35/25/23 13/24/22 12/22/20
f 35/25/23 36/27/25 14/26/24 13/24/22
f 36/27/25 37/29/27 15/28/26 14/26/24
f 37/29/27 38/31/29 16/30/28 15/28/26
f 38/31/29 39/33/31 17/32/30 16/30/28
f 39/33/31 40/35/33 18/34/32 17/32/30
f 40/35/33 41/37/35 19/36/34 18/34/32
f 41/37/35 42/39/37 20/38/36 19/36/34
f 42/39/37 43/41/39 21/40/38 20/38/36
f 43/41/39 44/43/41 22/42/40 21/40/38
f 44/43/41 45/45/43 23/44/42 22/42/40
f 45/45/43 46/47/45 24/46/44 23/44/42
f 46/50/45 2/49/46 24/48/44
f 47/51/47 25/3/3 1/1/1
f 47/53/47 48/52/48 26/6/5 25/7/3
f 48/52/48 49/54/49 27/9/7 26/6/5
f 49/54/49 50/55/50 28/11/9 27/9/7
f 50/55/50 51/56/51 29/13/11 28/11/9
f 51/56/51 52/57/52 30/15/13 29/13/11
f 52/57/52 53/58/53 31/17/15 30/15/13
f 53/58/53 54/59/54 32/19/17 31/17/15
f 54/59/54 55/60/55 33/21/19 32/19/17
f 55/60/55 56/61/56 34/23/21 33/21/19
f 56/61/56 57/62/57 35/25/23 34/23/21
f 57/62/57 58/63/58 36/27/25 35/25/23
f 58/63/58 59/64/59 37/29/27 36/27/25
f 59/64/59 60/65/60 38/31/29 37/29/27
f 60/65/60 61/66/61 39/33/31 38/31/29
f 61/66/61 62/67/62 40/35/33 39/33/31
f 62/67/62 63/68/63 41/37/35 40/35/33
f 63/68/63 64/69/64 42/39/37 41/37/35
f 64/69/64 65/70/65 43/41/39 42/39/37
f 65/70/65 66/71/66 44/43/41 43/41/39
f 66/71/66 67/72/67 45/45/43 44/43/41
f 67/72/67 68/73/68 46/47/45 45/45/43
f 68/74/68 2/49/46 46/50/45
f 69/75/69 47/51/47 1/1/1
f 69/77/69 70/76/70 48/52/48 47/53/47
f 70/76/70 71/78/71 49/54/49 48/52/48
f 71/78/71 72/79/72 50/55/50 49/54/49
f 72/79/72 73/80/73 51/56/51 50/55/50
f 73/80/73 74/81/74 52/57/52 51/56/51
f 74/81/74 75/82/75 53/58/53 52/57/52
f 75/82/75 76/83/76 54/59/54 53/58/53
f 76/83/76 77/84/77 55/60/55 54/59/54
f 77/84/77 78/85/78 56/61/56 55/60/55
f 78/85/78 79/86/79 57/62/57 56/61/56
f 79/86/79 80/87/80 58/63/58 57/62/57
f 80/87/80 81/88/81 59/64/59 58/63/58
f 81/88/81 82/89/82 60/65/60 59/64/59
f 82/89/82 83/90/83 61/66/61 60/65/60
f 83/90/83 84/91/84 62/67/62 61/66/61
f 84/91/84 85/92/85 63/68/63 62/67/62
f 85/92/85 86/93/86 64/69/64 63/68/63
f 86/93/86 87/94/87 65/70/65 64/69/64
f 87/94/87 88/95/88 66/71/66 65/70/65
f 88/95/88 89/96/89 67/72/67 66/71/66
f 89/96/89 90/97/90 68/73/68 67/72/67
f 90/98/90 2/49/46 68/74/68
f 91/99/91 69/75/69 1/1/1
f 91/101/91 92/100/92 70/76/70 69/77/69
f 92/100/92 93/102/93 71/78/71 70/76/70
f 93/102/93 94/103/94 72/79/72 71/78/71
f 94/103/94 95/104/95 73/80/73 72/79/72
f 95/104/95 96/105/96 74/81/74 73/80/73
f 96/105/96 97/106/97 75/82/75 74/81/74
f 97/106/97 98/107/98 76/83/76 75/82/75
f 98/107/98 99/108/99 77/84/77 76/83/76
f 99/108/99 100/109/100 78/85/78 77/84/77
f 100/109/100 101/110/101 79/86/79 78/85/78
f 101/110/101 102/111/102 80/87/80 79/86/79
f 102/111/102 103/112/103 81/88/81 80/87/80
f 103/112/103 104/113/104 82/89/82 81/88/81
f 104/113/104 105/114/105 83/90/83 82/89/82
f 105/114/105 106/115/106 84/91/84 83/90/83
f 106/115/106 107/116/107 85/92/85 84/91/84
f 107/116/107 108/117/108 86/93/86 85/92/85
f 108/117/108 109/118/109 87/94/87 86/93/86
f 109/118/109 110/119/110 88/95/88 87/94/87
f 110/119/110 111/120/111 89/96/89 88/95/88
f 111/120/111 112/121/112 90/97/90 89/96/89
f 112/122/112 2/49/46 90/98/90
f 113/123/113 91/99/91 1/1/1
f 113/127/113 114/126/114 92/125/92 91/124/91
f 114/126/114 115/129/115 93/128/93 92/125/92
f 115/129/115 116/131/116 94/130/94 93/128/93
f 116/131/116 117/133/117 95/132/95 94/130/94
f 117/133/117 118/135/118 96/134/96 95/132/95
f 118/135/118 119/137/119 97/136/97 96/134/96
f 119/137/119 120/139/120 98/138/98 97/136/97
f 120/139/120 121/141/121 99/140/99 98/138/98
f 121/141/121 122/143/122 100/142/100 99/140/99
f 122/143/122 123/145/123 101/144/101 100/142/100
f 123/145/123 124/147/124 102/146/102 101/144/101
f 124/147/124 125/149/125 103/148/103 102/146/102
f 125/149/125 126/151/126 104/150/104 103/148/103
f 126/151/126 127/153/127 105/152/105 104/150/104
f 127/153/127 128/155/128 106/154/106 105/152/105
f 128/155/128 129/157/129 107/156/107 106/154/106
f 129/157/129 130/159/130 108/158/108 107/156/107
f 130/159/130 131/161/131 109/160/109 108/158/108
f 131/161/131 132/163/132 110/162/110 109/160/109
f 132/163/132 133/165/133 111/164/111 110/162/110
f 133/165/133 134/167/134 112/166/112 111/164/111
f 134/168/134 2/49/46 112/122/112
f 3/2/2 113/123/113 1/1/1
f 3/4/2 4/5/4 114/126/114 113/127/113
f 4/5/4 5/8/6 115/129/115 114/126/114
f 5/8/6 6/10/8 116/131/116 115/129/115
f 6/10/8 7/12/10 117/133/117 116/131/116
f 7/12/10 8/14/12 118/135/118 117/133/117
f 8/14/12 9/16/14 119/137/119 118/135/118
f 9/16/14 10/18/16 120/139/120 119/137/119
f 10/18/16 11/20/18 121/141/121 120/139/120
f 11/20/18 12/22/20 122/143/122 121/141/121
f 12/22/20 13/24/22 123/145/123 122/143/122
f 13/24/22 14/26/24 124/147/124 123/145/123
f 14/26/24 15/28/26 125/149/125 124/147/124
f 15/28/26 16/30/28 126/151/126 125/149/125
f 16/30/28 17/32/30 127/153/127 126/151/126
f 17/32/30 18/34/32 128/155/128 127/153/127
f 18/34/32 19/36/34 129/157/129 128/155/128
f 19/36/34 20/38/36 130/159/130 129/157/129
f 20/38/36 21/40/38 131/161/131 130/159/130
f 21/40/38 22/42/40 132/163/132 131/161/131
f 22/42/40 23/44/42 133/165/133 132/163/132
f 23/44/42 24/46/44 134/167/134 133/165/133
f 24/48/44 2/49/46 134/168/134
# 138 facets

