#  ==========================================================================
#  
#  Wavefront OBJ format exported by Red-i Productions' "Riptide Pro"
#     (a commercial plugin for Cinema 4D PC & Mac, R9.6 or later)
#  
#  Red-i Productions
#  http://skinprops.com
#  
#  ==========================================================================
mtllib coin.mtl
v 0 -0.407866 -0
v -3.06422e-17 0.203645 -3.06422e-17
v 3 -0.407866 -0
v 3 -0.407866 -0
v 3 0.407866 -0
v 3 0.407866 -0
v 1.5 -0.407866 -2.59808
v 1.5 -0.407866 -2.59808
v 1.5 0.407866 -2.59808
v 1.5 0.407866 -2.59808
v -1.5 -0.407866 -2.59808
v -1.5 -0.407866 -2.59808
v -1.5 0.407866 -2.59808
v -1.5 0.407866 -2.59808
v -3 -0.407866 -3.67394e-16
v -3 -0.407866 -3.67394e-16
v -3 0.407866 -3.67394e-16
v -3 0.407866 -3.67394e-16
v -1.5 -0.407866 2.59808
v -1.5 -0.407866 2.59808
v -1.5 0.407866 2.59808
v -1.5 0.407866 2.59808
v 1.5 -0.407866 2.59808
v 1.5 -0.407866 2.59808
v 1.5 0.407866 2.59808
v 1.5 0.407866 2.59808
v 2.28409 0.407866 -4.58892e-17
v 1.14204 0.407866 -1.97808
v -1.14204 0.407866 -1.97808
v -2.28409 0.407866 -2.06782e-16
v -1.14204 0.407866 1.97808
v 1.14204 0.407866 1.97808
v 1.96888 0.203645 -7.01987e-17
v 0.984441 0.203645 -1.7051
v -0.984441 0.203645 -1.7051
v -1.96888 0.203645 -2.08888e-16
v -0.984441 0.203645 1.7051
v 0.984441 0.203645 1.7051
# 38 vertices

vt 0.17553 0.83492
vt 0.01969 0.83492
vt 0.09761 0.96989
vt 0.65704 0.05785
vt 0.65692 0.01547
vt 0.50108 0.01594
vt 0.50120 0.05831
vt 0.84645 0.45806
vt 0.56777 0.45806
vt 0.70711 0.69940
vt 0.25345 0.96989
vt 0.34524 0.01640
vt 0.34536 0.05878
vt 0.42843 0.69940
vt 0.33138 0.83492
vt 0.18940 0.01687
vt 0.18952 0.05924
vt 0.28909 0.45806
vt 0.25345 0.69996
vt 0.03356 0.01733
vt 0.03368 0.05970
vt 0.42843 0.21671
vt 0.09761 0.69996
vt 0.96871 0.05692
vt 0.96859 0.01455
vt 0.81275 0.01501
vt 0.81288 0.05738
vt 0.70711 0.21671
vt 0.99240 0.45806
vt 0.89107 0.45806
vt 0.72942 0.73804
vt 0.78008 0.82580
vt 0.40612 0.73804
vt 0.35545 0.82580
vt 0.24447 0.45806
vt 0.14314 0.45806
vt 0.40612 0.17807
vt 0.35545 0.09032
vt 0.72942 0.17807
vt 0.78008 0.09032
# 40 texture coordinates

vn 0 -1 -0
vn 0.866025 0 -0.5
vn 0 1 -0
vn 0 0 -1
vn -0.866025 0 -0.5
vn -0.866025 0 0.5
vn 0 0 1
vn 0.866025 0 0.5
vn -0.518786 0.800717 0.299521
vn 0 0.800717 0.599042
vn 0.518786 0.800717 0.299521
vn 0.518786 0.800717 -0.299521
vn 1.90731e-16 0.800717 -0.599042
vn -0.518786 0.800717 -0.299521
# 14 vertex normals

f 7/3/1 3/2/1 1/1/1
f 8/7/2 9/6/2 5/5/2 4/4/2
f 34/10/3 2/9/3 33/8/3
f 11/11/1 7/3/1 1/1/1
f 12/13/4 13/12/4 9/6/4 8/7/4
f 35/14/3 2/9/3 34/10/3
f 15/15/1 11/11/1 1/1/1
f 16/17/5 17/16/5 13/12/5 12/13/5
f 36/18/3 2/9/3 35/14/3
f 19/19/1 15/15/1 1/1/1
f 20/21/6 21/20/6 17/16/6 16/17/6
f 37/22/3 2/9/3 36/18/3
f 23/23/1 19/19/1 1/1/1
f 24/27/7 25/26/7 21/25/7 20/24/7
f 38/28/3 2/9/3 37/22/3
f 3/2/1 23/23/1 1/1/1
f 4/4/8 5/5/8 25/26/8 24/27/8
f 33/8/3 2/9/3 38/28/3
f 10/32/3 28/31/3 27/30/3 6/29/3
f 14/34/3 29/33/3 28/31/3 10/32/3
f 18/36/3 30/35/3 29/33/3 14/34/3
f 22/38/3 31/37/3 30/35/3 18/36/3
f 26/40/3 32/39/3 31/37/3 22/38/3
f 6/29/3 27/30/3 32/39/3 26/40/3
f 28/31/9 34/10/9 33/8/9 27/30/9
f 29/33/10 35/14/10 34/10/10 28/31/10
f 30/35/11 36/18/11 35/14/11 29/33/11
f 31/37/12 37/22/12 36/18/12 30/35/12
f 32/39/13 38/28/13 37/22/13 31/37/13
f 27/30/14 33/8/14 38/28/14 32/39/14
# 30 facets

