# Blender v2.78 (sub 0) OBJ File: ''
# www.blender.org
o Well_02__
v 22.995001 18.363802 -6.161397
v 22.995001 18.363798 6.161503
v 22.995001 7.078799 6.161501
v 22.995001 7.078801 -6.161599
v 16.833500 18.363802 -16.833496
v 16.833500 7.078803 -16.833498
v 6.161400 18.363804 -22.994997
v 6.161400 7.078804 -22.994999
v -6.161500 18.363804 -22.994997
v -6.161500 7.078804 -22.994999
v -16.833401 18.363802 -16.833595
v -16.833401 7.078803 -16.833597
v -22.995001 18.363802 -6.161497
v -22.995001 7.078801 -6.161499
v -22.995001 18.363798 6.161503
v -22.995001 7.078799 6.161501
v -16.833500 18.363798 16.833504
v -16.833500 7.078797 16.833502
v -6.161500 18.363796 22.995005
v -6.161500 7.078796 22.995003
v 6.161500 18.363796 22.995005
v 6.161500 7.078796 22.995003
v 16.833599 18.363798 16.833405
v 16.833401 7.078797 16.833601
v 20.339100 14.283201 -5.449798
v 14.889300 14.283203 -14.889298
v 5.449900 14.283203 -20.339098
v 14.889300 14.283197 14.889302
v -5.449800 14.283203 -20.339098
v -14.889300 14.283203 -14.889298
v -20.339100 14.283199 5.449802
v -20.339100 14.283201 -5.449798
v -14.889300 14.283197 14.889302
v -5.449800 14.283197 20.339102
v 5.449800 14.283197 20.339102
v 20.339100 14.283199 5.449903
v 26.792200 23.804003 -7.178896
v 26.792200 23.803999 7.178904
v 26.792200 18.363798 7.178903
v 26.792200 18.363802 -7.178897
v 34.278599 -0.000001 9.184900
v 34.278599 0.000001 -9.184900
v 34.278599 7.078802 -9.184899
v 34.278599 7.078799 9.184901
v 19.613300 23.804005 -19.613195
v 19.613300 18.363804 -19.613195
v 25.093700 0.000004 -25.093700
v 25.093700 7.078804 -25.093699
v 7.179000 23.804005 -26.792196
v 7.179000 18.363903 -26.792196
v 9.184900 0.000006 -34.278599
v 9.184900 7.078806 -34.278599
v -7.178900 23.804005 -26.792196
v -7.178900 18.363903 -26.792196
v -9.184900 0.000006 -34.278599
v -9.184900 7.078806 -34.278599
v -19.613199 23.804005 -19.613195
v -19.613199 18.363804 -19.613195
v -25.093700 0.000004 -25.093700
v -25.093700 7.078804 -25.093699
v -26.792200 23.804003 -7.178896
v -26.792200 18.363802 -7.178897
v -34.278599 0.000001 -9.184900
v -34.278599 7.078802 -9.184899
v -26.792200 23.803999 7.178904
v -26.792200 18.363798 7.178903
v -34.278599 -0.000001 9.184900
v -34.278599 7.078799 9.184901
v -19.613300 23.803997 19.613304
v -19.613300 18.363796 19.613304
v -25.093700 -0.000004 25.093700
v -25.093700 7.078796 25.093702
v -7.179000 23.803997 26.792204
v -7.179000 18.363796 26.792204
v -9.184900 -0.000006 34.278599
v -9.184900 7.078794 34.278599
v 7.178900 23.803997 26.792204
v 7.178900 18.363796 26.792204
v 9.184900 -0.000006 34.278599
v 9.184900 7.078794 34.278599
v 19.613300 23.803997 19.613304
v 19.613300 18.363796 19.613304
v 25.093700 -0.000004 25.093700
v 25.093700 7.078796 25.093702
v 20.339100 23.804001 -5.449796
v 20.339100 23.804001 5.449904
v 14.889300 23.804003 -14.889297
v 5.449900 23.804005 -20.339096
v -5.449800 23.804005 -20.339096
v -14.889300 23.804003 -14.889297
v -20.339100 23.804001 -5.449796
v -20.339100 23.804001 5.449804
v -14.889300 23.803999 14.889304
v -5.449800 23.803997 20.339104
v 5.449800 23.803997 20.339104
v 14.889300 23.803999 14.889304
vt 0.0828 0.0921
vt 0.0058 0.0919
vt 0.0061 0.0054
vt 0.0830 0.0056
vt 0.1597 0.0924
vt 0.1600 0.0059
vt 0.2366 0.0927
vt 0.2369 0.0062
vt 0.3135 0.0929
vt 0.3138 0.0064
vt 0.3904 0.0932
vt 0.3907 0.0067
vt 0.4674 0.0934
vt 0.4677 0.0069
vt 0.5443 0.0937
vt 0.5446 0.0072
vt 0.6212 0.0939
vt 0.6215 0.0074
vt 0.6981 0.0942
vt 0.6984 0.0077
vt 0.7751 0.0944
vt 0.7753 0.0079
vt 0.8520 0.0947
vt 0.8523 0.0082
vt 0.9289 0.0949
vt 0.9292 0.0084
vt 0.5079 0.4803
vt 0.5476 0.4114
vt 0.6165 0.3717
vt 0.5476 0.6286
vt 0.6959 0.3717
vt 0.7648 0.4114
vt 0.8045 0.5597
vt 0.8045 0.4803
vt 0.7648 0.6286
vt 0.6959 0.6683
vt 0.6165 0.6683
vt 0.5079 0.5597
vt 0.0884 0.2956
vt 0.0060 0.2956
vt 0.0058 0.2556
vt 0.0882 0.2556
vt 0.0058 0.2053
vt 0.0882 0.2053
vt 0.0882 0.2463
vt 0.0058 0.2463
vt 0.1707 0.2956
vt 0.1706 0.2556
vt 0.1706 0.2053
vt 0.1706 0.2463
vt 0.2531 0.2956
vt 0.2529 0.2556
vt 0.2529 0.2053
vt 0.2529 0.2463
vt 0.3355 0.2956
vt 0.3353 0.2556
vt 0.3353 0.2053
vt 0.3353 0.2463
vt 0.4178 0.2956
vt 0.4177 0.2556
vt 0.4176 0.2053
vt 0.4176 0.2463
vt 0.5002 0.2956
vt 0.5000 0.2556
vt 0.5000 0.2053
vt 0.5000 0.2463
vt 0.5825 0.2956
vt 0.5824 0.2556
vt 0.5824 0.2053
vt 0.5824 0.2463
vt 0.6649 0.2956
vt 0.6647 0.2556
vt 0.6647 0.2053
vt 0.6647 0.2463
vt 0.7473 0.2956
vt 0.7471 0.2556
vt 0.7471 0.2053
vt 0.7471 0.2463
vt 0.8296 0.2956
vt 0.8295 0.2556
vt 0.8294 0.2053
vt 0.8294 0.2463
vt 0.9120 0.2956
vt 0.9118 0.2556
vt 0.9118 0.2053
vt 0.9118 0.2463
vt 0.9943 0.2956
vt 0.9942 0.2556
vt 0.9941 0.2053
vt 0.9941 0.2463
vt 0.3827 0.5303
vt 0.3608 0.6120
vt 0.3407 0.6004
vt 0.3595 0.5303
vt 0.3009 0.6719
vt 0.2893 0.6518
vt 0.2192 0.6938
vt 0.2192 0.6706
vt 0.1374 0.6719
vt 0.1490 0.6518
vt 0.0776 0.6120
vt 0.0976 0.6004
vt 0.0557 0.5303
vt 0.0788 0.5303
vt 0.0776 0.4485
vt 0.0976 0.4601
vt 0.1374 0.3887
vt 0.1490 0.4087
vt 0.2192 0.3668
vt 0.2192 0.3899
vt 0.3009 0.3887
vt 0.2893 0.4087
vt 0.3608 0.4485
vt 0.3407 0.4601
vt 0.0333 0.6353
vt 0.0044 0.5271
vt 0.0350 0.5271
vt 0.0599 0.6199
vt 0.0333 0.4189
vt 0.0599 0.4343
vt 0.1125 0.3397
vt 0.1279 0.3663
vt 0.2207 0.3108
vt 0.2207 0.3414
vt 0.3289 0.3397
vt 0.3135 0.3663
vt 0.4080 0.4189
vt 0.3815 0.4343
vt 0.4370 0.5271
vt 0.4064 0.5271
vt 0.4080 0.6353
vt 0.3815 0.6199
vt 0.3289 0.7144
vt 0.3135 0.6879
vt 0.2207 0.7434
vt 0.2207 0.7128
vt 0.1125 0.7144
vt 0.1279 0.6879
vt 0.4463 0.5757
vt 0.4463 0.4637
vt 0.4967 0.4772
vt 0.4967 0.5622
vt 0.5023 0.3668
vt 0.5392 0.4036
vt 0.5993 0.3108
vt 0.6128 0.3611
vt 0.7113 0.3108
vt 0.6978 0.3611
vt 0.8083 0.3668
vt 0.7714 0.4036
vt 0.8643 0.4637
vt 0.8139 0.4772
vt 0.8643 0.5757
vt 0.8139 0.5622
vt 0.8083 0.6727
vt 0.7714 0.6358
vt 0.7113 0.7287
vt 0.6978 0.6784
vt 0.5993 0.7287
vt 0.6128 0.6784
vt 0.5023 0.6727
vt 0.5392 0.6358
vt 0.4830 0.1960
vt 0.4353 0.1960
vt 0.4353 0.1042
vt 0.4830 0.1042
vt 0.3876 0.1960
vt 0.3876 0.1042
vt 0.3398 0.1960
vt 0.3398 0.1042
vt 0.2921 0.1960
vt 0.2921 0.1042
vt 0.2444 0.1960
vt 0.2444 0.1042
vt 0.1967 0.1960
vt 0.1967 0.1042
vt 0.1490 0.1960
vt 0.1490 0.1042
vt 0.1013 0.1960
vt 0.1013 0.1042
vt 0.0536 0.1960
vt 0.0535 0.1042
vt 0.0058 0.1960
vt 0.0058 0.1043
vt 0.5784 0.1960
vt 0.5307 0.1960
vt 0.5307 0.1042
vt 0.5784 0.1042
vn 0.9659 0.0000 -0.2588
vn 0.9659 -0.0000 0.2588
vn 0.7071 0.0000 -0.7071
vn 0.2588 0.0000 -0.9659
vn -0.2588 0.0000 -0.9659
vn -0.7071 0.0000 -0.7071
vn -0.9659 0.0000 -0.2588
vn -0.9659 -0.0000 0.2588
vn -0.7071 -0.0000 0.7071
vn -0.2588 -0.0000 0.9659
vn 0.2588 0.0000 0.9659
vn 0.7071 -0.0000 0.7071
vn -0.0000 1.0000 0.0000
vn 0.0000 -1.0000 -0.0000
g Well_02____
s 1
f 1/1/1 2/2/2 3/3/2 4/4/1
f 5/5/3 1/1/1 4/4/1 6/6/3
f 7/7/4 5/5/3 6/6/3 8/8/4
f 9/9/5 7/7/4 8/8/4 10/10/5
f 11/11/6 9/9/5 10/10/5 12/12/6
f 13/13/7 11/11/6 12/12/6 14/14/7
f 15/15/8 13/13/7 14/14/7 16/16/8
f 17/17/9 15/15/8 16/16/8 18/18/9
f 19/19/10 17/17/9 18/18/9 20/20/10
f 21/21/11 19/19/10 20/20/10 22/22/11
f 23/23/12 21/21/11 22/22/11 24/24/12
f 2/25/2 23/23/12 24/24/12 3/26/2
f 25/27/13 26/28/13 27/29/13 28/30/13
f 27/29/13 29/31/13 30/32/13 31/33/13
f 30/32/13 32/34/13 31/33/13
f 31/33/13 33/35/13 34/36/13 28/30/13
f 34/36/13 35/37/13 28/30/13
f 27/29/13 31/33/13 28/30/13
f 36/38/13 25/27/13 28/30/13
f 37/39/1 38/40/2 39/41/2 40/42/1
f 41/43/2 42/44/1 43/45/1 44/46/2
f 45/47/3 37/39/1 40/42/1 46/48/3
f 42/44/1 47/49/3 48/50/3 43/45/1
f 49/51/4 45/47/3 46/48/3 50/52/4
f 47/49/3 51/53/4 52/54/4 48/50/3
f 53/55/5 49/51/4 50/52/4 54/56/5
f 51/53/4 55/57/5 56/58/5 52/54/4
f 57/59/6 53/55/5 54/56/5 58/60/6
f 55/57/5 59/61/6 60/62/6 56/58/5
f 61/63/7 57/59/6 58/60/6 62/64/7
f 59/61/6 63/65/7 64/66/7 60/62/6
f 65/67/8 61/63/7 62/64/7 66/68/8
f 63/65/7 67/69/8 68/70/8 64/66/7
f 69/71/9 65/67/8 66/68/8 70/72/9
f 67/69/8 71/73/9 72/74/9 68/70/8
f 73/75/10 69/71/9 70/72/9 74/76/10
f 71/73/9 75/77/10 76/78/10 72/74/9
f 77/79/11 73/75/10 74/76/10 78/80/11
f 75/77/10 79/81/11 80/82/11 76/78/10
f 81/83/12 77/79/11 78/80/11 82/84/12
f 79/81/11 83/85/12 84/86/12 80/82/11
f 38/87/2 81/83/12 82/84/12 39/88/2
f 83/85/12 41/89/2 44/90/2 84/86/12
f 40/91/14 39/92/14 2/93/14 1/94/14
f 39/92/14 82/95/14 23/96/14 2/93/14
f 82/95/14 78/97/14 21/98/14 23/96/14
f 78/97/14 74/99/14 19/100/14 21/98/14
f 74/99/14 70/101/14 17/102/14 19/100/14
f 70/101/14 66/103/14 15/104/14 17/102/14
f 66/103/14 62/105/14 13/106/14 15/104/14
f 62/105/14 58/107/14 11/108/14 13/106/14
f 58/107/14 54/109/14 9/110/14 11/108/14
f 54/109/14 50/111/14 7/112/14 9/110/14
f 50/111/14 46/113/14 5/114/14 7/112/14
f 46/113/14 40/91/14 1/94/14 5/114/14
f 44/115/13 43/116/13 4/117/13 3/118/13
f 43/116/13 48/119/13 6/120/13 4/117/13
f 48/119/13 52/121/13 8/122/13 6/120/13
f 52/121/13 56/123/13 10/124/13 8/122/13
f 56/123/13 60/125/13 12/126/13 10/124/13
f 60/125/13 64/127/13 14/128/13 12/126/13
f 64/127/13 68/129/13 16/130/13 14/128/13
f 68/129/13 72/131/13 18/132/13 16/130/13
f 72/131/13 76/133/13 20/134/13 18/132/13
f 76/133/13 80/135/13 22/136/13 20/134/13
f 80/135/13 84/137/13 24/138/13 22/136/13
f 84/137/13 44/115/13 3/118/13 24/138/13
f 38/139/13 37/140/13 85/141/13 86/142/13
f 37/140/13 45/143/13 87/144/13 85/141/13
f 45/143/13 49/145/13 88/146/13 87/144/13
f 49/145/13 53/147/13 89/148/13 88/146/13
f 53/147/13 57/149/13 90/150/13 89/148/13
f 57/149/13 61/151/13 91/152/13 90/150/13
f 61/151/13 65/153/13 92/154/13 91/152/13
f 65/153/13 69/155/13 93/156/13 92/154/13
f 69/155/13 73/157/13 94/158/13 93/156/13
f 73/157/13 77/159/13 95/160/13 94/158/13
f 77/159/13 81/161/13 96/162/13 95/160/13
f 81/161/13 38/139/13 86/142/13 96/162/13
f 86/163/7 85/164/8 25/165/8 36/166/7
f 85/164/8 87/167/9 26/168/9 25/165/8
f 87/167/9 88/169/10 27/170/10 26/168/9
f 88/169/10 89/171/11 29/172/11 27/170/10
f 89/171/11 90/173/12 30/174/12 29/172/11
f 90/173/12 91/175/2 32/176/2 30/174/12
f 91/175/2 92/177/1 31/178/1 32/176/2
f 92/177/1 93/179/3 33/180/3 31/178/1
f 93/179/3 94/181/4 34/182/4 33/180/3
f 94/181/4 95/183/5 35/184/5 34/182/4
f 95/185/5 96/186/6 28/187/6 35/188/5
f 96/186/6 86/163/7 36/166/7 28/187/6
